# xmcd
#
# Track frame offsets: 
#        150
#        17373
#        40858
#        57130
#        78817
#        104159
#        121738
#        141348
#        162426
#        184906
#        209165
#        240555
#        253380
#
# Disc length: 3671 seconds
#
# Revision: 0
# Processed by: cddbd v1.4PL0 Copyright (c) Steve Scherf et al.
# Submitted via: ExactAudioCopy v0.90b4
#
DISCID=b70e550d
DTITLE=Adam Zwig - pictures of the Gone America
DYEAR=2002
DGENRE=Blues
TTITLE0=Gusto God
TTITLE1=Same Old Devil In A New Set Of Clothes
TTITLE2=Children Of Darkness
TTITLE3=One
TTITLE4=Insulated Hipster (And The Generation Y)
TTITLE5=Just Not Enough
TTITLE6=Pack Of Lies
TTITLE7=Hobo Jungle
TTITLE8=Southern Escape
TTITLE9=Man Of The World
TTITLE10=Top Of The Mountain
TTITLE11=Two Who Made It One
TTITLE12=Jammin' At The Igloo
EXTD=
EXTT0=
EXTT1=
EXTT2=
EXTT3=
EXTT4=
EXTT5=
EXTT6=
EXTT7=
EXTT8=
EXTT9=
EXTT10=
EXTT11=
EXTT12=
PLAYORDER=
